<svg xmlns="http://www.w3.org/2000/svg" viewBox="0 0 1080 561.7"><defs><style>.cls-1{fill:#3f3f3f;}.cls-2{fill:#53ad9e;}.cls-3{fill:#4c9b8c;}.cls-4{fill:#65d4c4;}.cls-5,.cls-6,.cls-7,.cls-8,.cls-9{fill:none;stroke:#1b1b33;stroke-miterlimit:10;stroke-width:2px;}.cls-6{stroke-dasharray:11.65 11.65;}.cls-7{stroke-dasharray:11.65 11.65;}.cls-8{stroke-dasharray:11.65 11.65;}.cls-9{stroke-dasharray:11.64 11.64;}.cls-10{fill:#1b1b33;}</style></defs><title>poros</title><g id="Layer_2" data-name="Layer 2"><path class="cls-1" d="M574.39,301.48a27.86,27.86,0,0,1-11.86,11.29q-8.07,4.29-20.36,4.29H525.45v38.29h-20V255.62h36.72q11.58,0,19.72,4a27.88,27.88,0,0,1,12.21,11,32.3,32.3,0,0,1,.29,30.86Zm-20.79-4.35c2.67-2.53,4-6.07,4-10.65q0-14.57-16.29-14.57H525.45v29h15.86Q549.61,300.91,553.6,297.13Z"/><path class="cls-1" d="M606.89,351.56a36.46,36.46,0,0,1-14.36-14.36,43,43,0,0,1-5.21-21.43,42.14,42.14,0,0,1,5.35-21.43A37.31,37.31,0,0,1,607.32,280a44.85,44.85,0,0,1,41.43,0,37.31,37.31,0,0,1,14.65,14.36,42.14,42.14,0,0,1,5.35,21.43,41.21,41.21,0,0,1-5.5,21.43,38,38,0,0,1-14.86,14.36,43.18,43.18,0,0,1-20.93,5.07A41.67,41.67,0,0,1,606.89,351.56Zm30.79-15a19.13,19.13,0,0,0,7.64-7.93,26.65,26.65,0,0,0,2.86-12.86q0-11.28-5.93-17.36a19.48,19.48,0,0,0-14.5-6.07,19,19,0,0,0-14.36,6.07q-5.79,6.07-5.79,17.36t5.65,17.36a18.56,18.56,0,0,0,14.21,6.07A20.84,20.84,0,0,0,637.68,336.56Z"/><path class="cls-1" d="M713.54,278.63a28,28,0,0,1,14.22-3.58v21h-5.29q-9.42,0-14.21,4.42t-4.79,15.43v39.44h-20V276.2h20v12.28A28.1,28.1,0,0,1,713.54,278.63Z"/><path class="cls-1" d="M814.19,321.77H756.33q.72,8.58,6,13.43a18.49,18.49,0,0,0,13,4.86q11.14,0,15.86-9.57h21.58a36.09,36.09,0,0,1-13.15,18.79q-9.72,7.35-23.86,7.35a41.3,41.3,0,0,1-20.5-5.07,35.55,35.55,0,0,1-14.14-14.36A43.89,43.89,0,0,1,736,315.77a44.84,44.84,0,0,1,5-21.57,35,35,0,0,1,14-14.29,44.94,44.94,0,0,1,40.93-.14,34.24,34.24,0,0,1,13.86,13.78,41.82,41.82,0,0,1,4.93,20.51A47.2,47.2,0,0,1,814.19,321.77Zm-20.14-13.43A15.89,15.89,0,0,0,788.48,296a19.77,19.77,0,0,0-13.29-4.64,18.16,18.16,0,0,0-12.5,4.5q-5.07,4.5-6.22,12.5Z"/><path class="cls-1" d="M918.92,255.62l-36.58,99.73H858.06l-36.58-99.73h21.43l27.43,79.3,27.29-79.3Z"/><path class="cls-1" d="M932.28,263.41a11.73,11.73,0,0,1,0-16.72,13.16,13.16,0,0,1,17.57,0,11.73,11.73,0,0,1,0,16.72,13.16,13.16,0,0,1-17.57,0Zm18.64,12.79v79.15h-20V276.2Z"/><path class="cls-1" d="M988.93,338.92h35.29v16.43h-58V339.2l34.57-46.57H966.35V276.2h57.44v16.14Z"/><polygon class="cls-2" points="55.78 164.3 257.88 47.53 459.98 164.3 257.88 280.98 55.78 164.3"/><polygon class="cls-3" points="459.83 397.53 257.74 514.04 257.74 280.85 459.83 164.17 459.83 397.53"/><polygon class="cls-4" points="257.88 514.17 55.78 397.66 55.78 164.3 257.88 280.98 257.88 514.17"/><polyline class="cls-5" points="257.88 508.17 257.88 514.17 252.68 511.18"/><line class="cls-6" x1="242.59" y1="505.36" x2="66.03" y2="403.56"/><polyline class="cls-5" points="60.98 400.65 55.78 397.66 55.78 391.66"/><line class="cls-7" x1="55.78" y1="380.01" x2="55.78" y2="176.12"/><polyline class="cls-5" points="55.78 170.3 55.78 164.3 60.98 167.3"/><line class="cls-8" x1="71.07" y1="173.12" x2="247.64" y2="275.06"/><polyline class="cls-5" points="252.69 277.98 257.88 280.98 257.88 286.98"/><line class="cls-9" x1="257.88" y1="298.62" x2="257.88" y2="502.35"/><path class="cls-10" d="M420,391.13c-23.45-7-34.64-47.87-20.5-62,8-8,23.63-6.8,33.68-1.46,20.32,10.77,27.08,43.11,13.67,57.11C440.14,391.79,428.83,393.75,420,391.13Z"/><path class="cls-10" d="M373.13,289.1c-5.33-24.82,25.58-60.21,52.23-53.21,16.81,4.42,29.92,25.16,26.85,43.45-4.62,27.55-44.48,40.7-65.41,28.31C385.57,306.93,375.65,300.85,373.13,289.1Z"/><path class="cls-10" d="M286.89,461.14c-7.4-15.32,21.07-57.81,52.72-54.67,12.88,1.27,28.34,10.32,29.77,22,2.46,19.93-36.18,47-66.87,41C297.42,468.44,289.68,466.93,286.89,461.14Z"/><path class="cls-10" d="M292.59,289.1c13.43-17.23,56.55-11,66.87,11.72,3.42,7.51,3.74,17.93-1.46,25.38-12.11,17.39-52.47,16.24-65.41-5.37C287.13,311.73,285.82,297.79,292.59,289.1Z"/><path class="cls-10" d="M307.2,382.57c-5.22-10.39,18.87-42.23,41.88-39.21,8.69,1.14,18.78,7.45,19.77,15.42,1.44,11.5-16.72,21.52-27.14,25.13C330.11,387.92,310.91,389.94,307.2,382.57Z"/><path class="cls-10" d="M373.88,393.29c-4.93-12.17-3.52-29.42,3.35-31.83,7.4-2.61,23,11.36,22.78,26.13-.15,9-6.22,19.7-13.06,19.77C379.61,407.44,374.69,395.28,373.88,393.29Z"/><path class="cls-10" d="M270.23,395.9c-9.93-7.44-4.93-39.36,11.88-47.9,1.74-.89,7-3.54,11.51-1.49,10,4.53,14,30.68.74,43.45C287.94,396.15,276.22,400.39,270.23,395.9Z"/><path class="cls-10" d="M150.81,399.39c-9.39-10.36,1-41.95,17.68-43.94,13.79-1.65,30.69,17.13,27.33,31.08C191.83,403.1,160,409.55,150.81,399.39Z"/><path class="cls-10" d="M192.61,448.68c-8.93-16.1,11.06-45,26.79-43.93,15.92,1.1,31.53,33.27,20.36,47.68C230,465.06,200.52,463,192.61,448.68Z"/><path class="cls-10" d="M215.11,352.23c-9.22-13.93,3.17-36.94,18.22-42.33,2.71-1,7-2.5,10.72-.53,11.94,6.32,11.54,45.4-4.83,52C231.2,364.56,220.05,359.7,215.11,352.23Z"/><path class="cls-10" d="M213,386c-3.84-6-3.91-15.48.53-18.22,4.91-3,15.34,2.17,17.69,10.18,1.58,5.43-.23,13.25-5.36,15S215.36,389.73,213,386Z"/><path class="cls-10" d="M164.09,398c-4.68,1.15-6.73,8.35-4.5,11.78a5.09,5.09,0,0,0,1.58,1.5c2.4,1.58,6.45,2,9.14-.43,3.18-2.86,2.79-8.15,0-10.93A6.81,6.81,0,0,0,164.09,398Z"/><path class="cls-10" d="M144.38,414.7c5.43-8,16.06-8.35,16.71-8.36,2,0,12.16-.19,15.86,6.86,2.87,5.47,0,11.6-.86,13.28-2.47,5.18-8.11,10.75-15.42,10.93-10.66.26-19.65-11.07-18.22-18.64A10.33,10.33,0,0,1,144.38,414.7Z"/><path class="cls-10" d="M176.66,324.21c2.5-2,6.68-2.79,9.35-.88,3.22,2.31,2.55,7.31,2.12,10.59-.4,3-.86,6.36-3.36,7.58-3,1.44-7.14-.95-9.17-3.7C172.76,334,172.69,327.43,176.66,324.21Z"/><path class="cls-10" d="M176.66,334.09c-2.23-1.64-7.12-.35-9.17,2.47-2.62,3.61-.45,9.52,2.47,12.7,5.75,6.28,17.83,5.69,19.93,1.59,1.53-3-1.31-9.53-5.47-11.47-1.76-.82-4.51-1.16-6.53-3.7C177.23,334.84,177.24,334.52,176.66,334.09Z"/><path class="cls-10" d="M197.81,355c0-2.78,2.62-5.65,5.21-5.6,3.19.07,5.4,4.62,4.93,8-.08.61-.37,2.71-1.87,3.46C203.48,362.24,197.79,359.18,197.81,355Z"/><path class="cls-10" d="M189.93,404.87c.25-4,7.39-6.19,9.21-4.49s-.4,9.53-4.07,9.85C192.69,410.43,189.77,407.51,189.93,404.87Z"/><path class="cls-10" d="M206.64,394.38c-.35,4.31,5.28,7.37,6.85,6.42,2-1.22-.11-10.71-3-11.13C208.89,389.43,206.83,392,206.64,394.38Z"/><path class="cls-10" d="M74.88,389.92c.39-8.43,8.44-15.46,15.51-15.51,11.74-.1,21.57,19,16.28,27.25-4.13,6.47-18.27,7.61-26.12.75C79.79,401.74,74.55,397,74.88,389.92Z"/><path class="cls-10" d="M117.09,396.64c.57-7.66,13-12.56,17.86-9.2,5.35,3.71,3.49,18.84-3.25,21.12C126.11,410.44,116.56,403.64,117.09,396.64Z"/><path class="cls-10" d="M141.59,351c-2.89-6.79.31-17.13,4.84-17.83,3.19-.5,6.75,3.83,8.16,7.25a10.41,10.41,0,0,1,.61,7.26c-1.58,4.8-7.45,8.2-10.89,6.65C144,354.16,142.67,353.51,141.59,351Z"/><path class="cls-10" d="M350.3,260.87c-4.31-6.63,3.34-22.68,13-22.75,7-.05,15.19,8.34,13.54,16.25-1.42,6.82-9.43,9.86-14.62,10.29C361.27,264.73,353.24,265.4,350.3,260.87Z"/><path class="cls-10" d="M367.63,332.88c-3.32-8.21,4.41-19.21,10.28-18.95,5,.22,9.35,8.66,9.21,15.7,0,1.28-.17,8.57-4.87,10.83C377.33,342.83,369.89,338.49,367.63,332.88Z"/><path class="cls-10" d="M277.28,390.37c-3.17,7.49-6.39,23.07-2.7,24.3,2.68.9,8.77-5.91,9.57-13.26.72-6.53-2.73-13.65-4.91-13.5C278.38,388,277.79,389.15,277.28,390.37Z"/><path class="cls-10" d="M275.81,407.31c-5.65,1.8-7.72,2.74-8.84,4.91-1.89,3.65-.13,8.91,2.7,11.78,6.48,6.62,22.82,5.06,28.23-4.42,3-5.15,2.92-13.12-1-16.2C294.39,401.38,288.2,403.36,275.81,407.31Z"/><path class="cls-10" d="M333.68,394.28c1.06-4.59,15.4-8.74,22-2.13,2.46,2.47,4.41,7,2.74,9.76-2.88,4.74-16.45,3.89-22.58-3.05C334.75,397.66,333.28,396,333.68,394.28Z"/><path class="cls-10" d="M402.05,415c-2-4.23,7.71-16.47,17.09-15.57,3.08.3,6.94,2.08,7.33,4.58.44,2.81-3.67,5.37-9.77,9.16-7.42,4.61-10.43,4.14-11.9,3.66A4.21,4.21,0,0,1,402.05,415Z"/><path class="cls-10" d="M317.2,267.31c.83-9.83,7.85-15.91,13.43-15.27,5.89.68,11.68,9.06,9.15,13.74-1.59,3-6.37,4.25-11.6,3.36"/><path class="cls-10" d="M180.45,104.67c17.44-25.11,81.16-21.4,105.1,14,10.5,15.53,15.84,40.84,4.31,56-18.58,24.51-77.64,18.34-101.86-15.09C177.43,145.05,169.74,120.09,180.45,104.67Z"/><path class="cls-10" d="M310.34,165.57c-10.48,3.31-25.94-15.58-22.63-22.64C291,136,309.86,138.6,315,141.64a11.15,11.15,0,0,1,4,4,9.75,9.75,0,0,1,.93,4.33C320.2,156.87,315.42,164,310.34,165.57Z"/><path class="cls-10" d="M302.8,153.17c3.63-14.83,20.49-24.44,35-18.86,12.84,4.93,19.69,20.11,15.09,33.41-4.66,13.48-19.8,21.41-33.42,16.71C306.55,180,299.73,165.69,302.8,153.17Z"/><path class="cls-10" d="M141.65,179c6.52,16.26,26.85,30.2,35.57,24.79,8-5,8.86-27.79-3.77-37.72-10.58-8.32-28.89-6.23-32.88,1.61C138.67,171.45,140.36,175.82,141.65,179Z"/><path class="cls-10" d="M269.38,237.25c-8.35-7.66-10.53-22.21-4.31-28.57,7.59-7.76,28-3.55,33.41,9.17,3.19,7.46,1.65,18.94-6.46,23.71C284.09,246.22,274.4,241.86,269.38,237.25Z"/><path class="cls-10" d="M268.84,218.93a6.46,6.46,0,0,1,1,4.29c-.84,5.77-11.67,10.57-16.09,6.84-2.7-2.27-3.06-7.77-.55-11.09C256.3,214.91,263.63,214.14,268.84,218.93Z"/><path class="cls-10" d="M235.85,230.25c6.8-3.47,9-18,3.52-22.93-6.46-5.78-24.23,1.42-25,9.61-.62,6.94,10.91,15.4,19,14.06A7.79,7.79,0,0,0,235.85,230.25Z"/><path class="cls-10" d="M245.1,236.72c-5.75,1.81-10.88,11.86-6.47,17.57,3.52,4.56,12,4.84,15.53,1.11,4.93-5.16,0-17.44-5.92-18.87A5.74,5.74,0,0,0,245.1,236.72Z"/><path class="cls-10" d="M144.32,138.9c-.5,7,9.11,14,17,12.21,4.1-.94,8.59-4.44,9.24-9.43.8-6.17-4.66-11.73-10.35-13C152.85,127.15,144.76,132.79,144.32,138.9Z"/><path class="cls-10" d="M294.46,95.54c-4.28,6.09,1,23.78,15.5,27.69,15.3,4.13,28.8-10.28,27.69-17.72C336,94.57,301,86.29,294.46,95.54Z"/><path class="cls-10" d="M370.33,155.35c2.84-9.81,23.11-16.06,34.33-7.2,6.19,4.89,10,14.62,6.65,21-4.94,9.59-24.9,10.39-34.89,1.11C376,169.9,368.25,162.53,370.33,155.35Z"/><path class="cls-10" d="M348.18,188c-1.72,7.49,12.4,18,18.27,14.95,5.14-2.64,7-17.14-.55-21.6C359.62,177.68,349.45,182.47,348.18,188Z"/><path class="cls-10" d="M317.16,211.29c-2.4,3.46-2.39,9.43.56,12.18,6.79,6.33,28.93-4.6,28.24-10C345.31,208.39,323.2,202.58,317.16,211.29Z"/><path class="cls-10" d="M294.46,187.47c-2,4.95,7,14.31,11.63,12.74,3.82-1.28,6.92-10.63,2.21-15C304.07,181.38,296,183.78,294.46,187.47Z"/><path class="cls-10" d="M97.45,251.78c-6.69,4.1-24.81,15.2-22.66,26.53,1.5,7.94,12.2,11.9,16.76,13.59,2.47.92,22.15,7.85,37.25-3.95,15.41-12,18.65-37.8,9.16-45.81C127.55,233.34,104,247.77,97.45,251.78Z"/><path class="cls-10" d="M90.7,305.79c-3.94-2.4-4.5-15.54,2.89-18.8,5.44-2.4,13.08,1.46,14,5.78C109,299.31,95.32,308.61,90.7,305.79Z"/><path class="cls-10" d="M77.2,311.1c-4.7,5.29.51,24.38,15.91,30.38,14.52,5.65,30.84-3.15,31.35-10.13C125.29,319.94,84.66,302.69,77.2,311.1Z"/><path class="cls-10" d="M118.19,366.08c-3.65-2.84-15,3.75-14.47,7.23.49,2.92,9.88,6.54,14,1.93C120.06,372.6,120.28,367.7,118.19,366.08Z"/><path class="cls-10" d="M75.75,350.16c-1.73,3.6,3.44,13.54,11.57,13,6.59-.42,11.35-7.46,10.13-11.09C95.56,346.46,78.08,345.33,75.75,350.16Z"/><path class="cls-10" d="M129.28,362.7c-2.25,4,4,11.8,7.24,11.09,3-.67,5.79-9.46,1.92-12.54C135.84,359.19,130.75,360.12,129.28,362.7Z"/><path class="cls-10" d="M129.76,298.56c-.76,5.62,2.67,12.61,6.76,13C144,312.34,155,291.18,151,287,147.71,283.58,131.21,287.84,129.76,298.56Z"/><path class="cls-10" d="M139.41,322.67c0,2.16,2.16,4.47,3.86,4.34,2-.14,3.11-3.57,4.37-7.35.78-2.37.54-2.68.45-2.77C146.89,315.66,139.33,318.53,139.41,322.67Z"/><path class="cls-10" d="M165.28,317.41c-10.11-18.26-2.1-45.39,8.57-47.69,9.19-2,21.44,14.23,25.72,28.4,3.71,12.27,4.16,32.07-5.36,36.43C185.59,338.51,171.47,328.58,165.28,317.41Z"/></g></svg>