<svg xmlns="http://www.w3.org/2000/svg" viewBox="0 0 1187.64 1187.64"><defs><style>.cls-1{fill:#53ad9e;}.cls-2{fill:#4c9b8c;}.cls-3{fill:#65d4c4;}.cls-4,.cls-5,.cls-6,.cls-7,.cls-8{fill:none;stroke:#fff;stroke-miterlimit:10;stroke-width:2px;}.cls-5{stroke-dasharray:12.07 12.07;}.cls-6{stroke-dasharray:12.08 12.08;}.cls-7{stroke-dasharray:12.08 12.08;}.cls-8{stroke-dasharray:12.07 12.07;}.cls-9{fill:#1b1b33;}</style></defs><title>poros</title><g id="Layer_2" data-name="Layer 2"><polygon class="cls-1" points="112.74 316.37 593.82 38.41 1074.9 316.37 593.82 594.12 112.74 316.37"/><polygon class="cls-2" points="1074.55 871.56 593.47 1148.92 593.47 593.81 1074.55 316.06 1074.55 871.56"/><polygon class="cls-3" points="593.82 1149.23 112.74 871.87 112.74 316.37 593.82 594.12 593.82 1149.23"/><polyline class="cls-4" points="593.82 1143.23 593.82 1149.23 588.62 1146.23"/><line class="cls-5" x1="578.16" y1="1140.2" x2="123.17" y2="877.89"/><polyline class="cls-4" points="117.94 874.87 112.74 871.87 112.74 865.87"/><line class="cls-6" x1="112.74" y1="853.8" x2="112.74" y2="328.41"/><polyline class="cls-4" points="112.74 322.37 112.74 316.37 117.93 319.37"/><line class="cls-7" x1="128.39" y1="325.41" x2="583.39" y2="588.1"/><polyline class="cls-4" points="588.62 591.12 593.82 594.12 593.82 600.12"/><line class="cls-8" x1="593.82" y1="612.19" x2="593.82" y2="1137.2"/><path class="cls-9" d="M979.72,856.33c-55.83-16.59-82.47-113.94-48.8-147.58,19.12-19.1,56.24-16.18,80.18-3.48,48.36,25.65,64.44,102.62,32.53,136C1027.68,857.9,1000.75,862.58,979.72,856.33Z"/><path class="cls-9" d="M868.17,613.47c-12.69-59.1,60.88-143.34,124.33-126.66,40,10.51,71.22,59.88,63.92,103.42-11,65.59-105.89,96.89-155.72,67.39C897.79,655.9,874.17,641.42,868.17,613.47Z"/><path class="cls-9" d="M662.86,1023c-17.6-36.47,50.16-137.62,125.5-130.15,30.67,3,67.47,24.57,70.89,52.29,5.85,47.43-86.14,111.88-159.2,97.61C687.94,1040.38,669.52,1036.78,662.86,1023Z"/><path class="cls-9" d="M676.43,613.47c32-41,134.64-26.19,159.2,27.89,8.13,17.89,8.89,42.67-3.49,60.42C803.31,743.16,707.26,740.43,676.43,689,663.44,667.32,660.33,634.13,676.43,613.47Z"/><path class="cls-9" d="M711.22,836c-12.43-24.72,44.92-100.51,99.7-93.32,20.67,2.72,44.69,17.74,47.06,36.69,3.42,27.39-39.82,51.24-64.61,59.82C765.76,848.7,720,853.51,711.22,836Z"/><path class="cls-9" d="M869.94,861.48c-11.73-29-8.36-70,8-75.78,17.62-6.2,54.83,27,54.24,62.22-.36,21.43-14.81,46.89-31.11,47.06C883.59,895.16,871.87,866.22,869.94,861.48Z"/><path class="cls-9" d="M623.21,867.69c-23.63-17.7-11.74-93.69,28.29-114,4.14-2.11,16.57-8.43,27.4-3.54,23.87,10.77,33.31,73,1.77,103.42C665.37,868.29,637.48,878.38,623.21,867.69Z"/><path class="cls-9" d="M339,876c-22.37-24.66,2.44-99.86,42.09-104.59,32.81-3.92,73,40.77,65,74C436.58,884.82,360.9,900.19,339,876Z"/><path class="cls-9" d="M438.44,993.34c-21.25-38.33,26.33-107.2,63.77-104.59,37.91,2.63,75.05,79.21,48.47,113.52C527.4,1032.31,457.26,1027.3,438.44,993.34Z"/><path class="cls-9" d="M492,763.75c-22-33.17,7.53-88,43.36-100.77,6.46-2.31,16.66-6,25.51-1.27,28.44,15,27.48,108.07-11.48,123.72C530.31,793.1,503.77,781.51,492,763.75Z"/><path class="cls-9" d="M486.9,844.1c-9.13-14.29-9.3-36.85,1.28-43.36,11.68-7.2,36.52,5.15,42.09,24.23,3.78,12.93-.53,31.53-12.75,35.71C505.63,864.75,492.59,853,486.9,844.1Z"/><path class="cls-9" d="M370.56,872.65c-11.15,2.75-16,19.89-10.71,28.06a12.12,12.12,0,0,0,3.76,3.57c5.7,3.77,15.34,4.72,21.75-1,7.58-6.8,6.63-19.4,0-26C381.77,873.67,376,871.32,370.56,872.65Z"/><path class="cls-9" d="M323.64,912.44c12.93-19.09,38.24-19.87,39.78-19.89,4.78-.08,28.93-.46,37.75,16.32,6.84,13-.13,27.62-2,31.62-5.88,12.33-19.31,25.6-36.73,26-25.37.61-46.76-26.35-43.35-44.38C319.81,918.09,321.65,915.37,323.64,912.44Z"/><path class="cls-9" d="M400.48,697.05c6-4.84,15.89-6.66,22.25-2.1,7.68,5.5,6.08,17.4,5,25.19-.95,7.06-2,15.15-8,18.05-7,3.43-17-2.25-21.83-8.81C391.2,720.21,391,704.7,400.48,697.05Z"/><path class="cls-9" d="M400.48,720.56c-5.32-3.92-17-.83-21.84,5.88-6.24,8.59-1.07,22.65,5.88,30.23C398.22,771.6,427,770.2,432,760.45c3.63-7.08-3.12-22.68-13-27.29-4.18-1.95-10.73-2.78-15.53-8.82C401.84,722.35,401.86,721.58,400.48,720.56Z"/><path class="cls-9" d="M450.83,770.44c0-6.64,6.24-13.47,12.38-13.34,7.62.16,12.87,11,11.75,19-.2,1.46-.89,6.45-4.44,8.26C464.31,787.56,450.78,780.28,450.83,770.44Z"/><path class="cls-9" d="M432.07,889.05c.59-9.43,17.58-14.74,21.92-10.7,4.59,4.26-.94,22.69-9.68,23.44C438.64,902.28,431.68,895.33,432.07,889.05Z"/><path class="cls-9" d="M471.83,864.07c-.82,10.27,12.58,17.54,16.31,15.29,4.83-2.91-.25-25.5-7.13-26.5C477.19,852.3,472.29,858.3,471.83,864.07Z"/><path class="cls-9" d="M158.19,853.46c.93-20.06,20.09-36.8,36.94-36.94,27.93-.23,51.34,45.14,38.74,64.87-9.84,15.4-43.5,18.13-62.17,1.8C169.88,881.6,157.41,870.33,158.19,853.46Z"/><path class="cls-9" d="M258.67,869.46c1.37-18.24,31-29.9,42.52-21.9,12.73,8.81,8.3,44.85-7.73,50.26C280.14,902.31,257.42,886.12,258.67,869.46Z"/><path class="cls-9" d="M317,760.75c-6.88-16.17.72-40.79,11.51-42.46,7.59-1.18,16.08,9.12,19.43,17.27,1.12,2.72,3.95,9.61,1.44,17.27-3.75,11.44-17.72,19.52-25.91,15.83C322.76,768.34,319.57,766.79,317,760.75Z"/><path class="cls-9" d="M813.82,546.25c-10.25-15.77,7.94-54,30.93-54.14C861.46,492,880.9,512,877,530.78c-3.38,16.23-22.44,23.47-34.8,24.49C839.93,555.46,820.83,557,813.82,546.25Z"/><path class="cls-9" d="M855.06,717.68c-7.9-19.56,10.5-45.73,24.49-45.12,11.94.53,22.25,20.63,21.91,37.38-.06,3-.41,20.4-11.6,25.78C878.15,741.35,860.46,731,855.06,717.68Z"/><path class="cls-9" d="M640,854.51c-7.55,17.84-15.19,54.94-6.43,57.87,6.39,2.13,20.89-14.07,22.8-31.56,1.7-15.55-6.5-32.5-11.69-32.15C642.62,848.81,641.22,851.62,640,854.51Z"/><path class="cls-9" d="M636.49,894.85c-13.45,4.28-18.37,6.52-21,11.69-4.49,8.69-.29,21.2,6.43,28.05,15.45,15.74,54.34,12,67.22-10.52,7-12.28,6.95-31.25-2.34-38.58C680.73,880.74,666,885.44,636.49,894.85Z"/><path class="cls-9" d="M774.25,863.84c2.54-10.94,36.65-20.8,52.32-5.09,5.86,5.89,10.51,16.73,6.54,23.26-6.86,11.27-39.16,9.25-53.77-7.27C776.81,871.88,773.31,867.92,774.25,863.84Z"/><path class="cls-9" d="M937,913.25c-4.8-10.06,18.34-39.21,40.69-37.06,7.31.71,16.5,4.95,17.44,10.9,1.05,6.69-8.74,12.78-23.26,21.8-17.67,11-24.83,9.86-28.33,8.72C941.29,916.87,938.27,915.89,937,913.25Z"/><path class="cls-9" d="M735,561.58c2-23.4,18.69-37.86,32-36.33,14,1.62,27.8,21.55,21.79,32.7-3.78,7-15.18,10.12-27.61,8"/><path class="cls-9" d="M409.51,174.42C451,114.67,602.69,123.5,659.68,207.78c25,37,37.71,97.23,10.27,133.43-44.24,58.34-184.82,43.66-242.48-35.92C402.31,270.56,384,211.14,409.51,174.42Z"/><path class="cls-9" d="M718.7,319.4c-25,7.89-61.76-37.08-53.89-53.89,7.72-16.46,52.74-10.3,64.93-3.08a26.15,26.15,0,0,1,9.49,9.5,23.09,23.09,0,0,1,2.22,10.31C742.16,298.69,730.8,315.58,718.7,319.4Z"/><path class="cls-9" d="M700.74,289.89c8.66-35.31,48.79-58.19,83.39-44.9,30.57,11.73,46.87,47.86,35.92,79.54-11.08,32.08-47.13,51-79.54,39.77C709.67,353.65,693.43,319.68,700.74,289.89Z"/><path class="cls-9" d="M317.13,351.47c15.52,38.69,63.92,71.88,84.68,59,19-11.79,21.09-66.17-9-89.81-25.18-19.79-68.77-14.81-78.26,3.85C310.05,333.41,314.06,343.8,317.13,351.47Z"/><path class="cls-9" d="M621.19,490c-19.86-18.24-25.05-52.88-10.26-68,18.08-18.47,66.65-8.45,79.54,21.82,7.58,17.77,3.93,45.08-15.39,56.45C656.22,511.39,633.14,501,621.19,490Z"/><path class="cls-9" d="M619.91,446.41c2.61,4.44,2.8,7.89,2.47,10.23-2,13.73-27.77,25.16-38.3,16.28-6.42-5.41-7.29-18.5-1.32-26.41C590.06,436.84,607.51,435,619.91,446.41Z"/><path class="cls-9" d="M541.38,473.36c16.18-8.25,21.37-42.94,8.37-54.58-15.38-13.76-57.67,3.4-59.42,22.89-1.49,16.52,25.95,36.65,45.33,33.45A17.93,17.93,0,0,0,541.38,473.36Z"/><path class="cls-9" d="M563.39,488.77C549.71,493.08,537.5,517,548,530.58c8.38,10.86,28.48,11.53,37,2.65,11.74-12.28,0-41.51-14.08-44.9A13.7,13.7,0,0,0,563.39,488.77Z"/><path class="cls-9" d="M323.5,255.92c-1.2,16.71,21.68,33.36,40.5,29.05,9.77-2.23,20.47-10.57,22-22.45,1.9-14.68-11.09-27.91-24.65-30.81C343.8,228,324.55,241.36,323.5,255.92Z"/><path class="cls-9" d="M680.89,152.71c-10.19,14.48,2.35,56.59,36.91,65.91,36.41,9.82,68.54-24.48,65.92-42.19C779.86,150.38,696.37,130.69,680.89,152.71Z"/><path class="cls-9" d="M861.5,295.08c6.75-23.37,55-38.23,81.73-17.14,14.74,11.63,23.69,34.8,15.82,50.1-11.75,22.83-59.28,24.74-83,2.64C875,329.7,856.56,312.15,861.5,295.08Z"/><path class="cls-9" d="M808.76,372.86c-4.08,17.84,29.52,42.77,43.51,35.6,12.23-6.28,16.64-40.81-1.32-51.42C836,348.22,811.79,359.64,808.76,372.86Z"/><path class="cls-9" d="M734.94,428.23c-5.72,8.25-5.71,22.46,1.32,29,16.16,15.07,68.87-11,67.23-23.73C801.93,421.34,749.31,407.51,734.94,428.23Z"/><path class="cls-9" d="M680.89,371.54c-4.8,11.77,16.58,34,27.68,30.32,9.1-3.05,16.48-25.32,5.28-35.59C703.78,357,684.47,362.76,680.89,371.54Z"/><path class="cls-9" d="M211.93,524.62c-15.93,9.76-59.07,36.19-54,63.14,3.59,18.9,29.05,28.34,39.91,32.37,5.88,2.17,52.72,18.69,88.67-9.41,36.67-28.66,44.39-90,21.81-109.06C283.58,480.73,227.53,515.06,211.93,524.62Z"/><path class="cls-9" d="M195.85,653.2c-9.38-5.71-10.72-37,6.89-44.77,12.94-5.71,31.13,3.48,33.29,13.77C239.31,637.75,206.85,659.89,195.85,653.2Z"/><path class="cls-9" d="M163.71,665.83c-11.19,12.59,1.21,58,37.88,72.32C236.15,751.6,275,730.66,276.21,714,278.2,686.88,181.48,645.82,163.71,665.83Z"/><path class="cls-9" d="M261.29,796.7c-8.69-6.76-35.82,8.94-34.44,17.22,1.16,6.94,23.51,15.56,33.29,4.59C265.75,812.22,266.26,800.57,261.29,796.7Z"/><path class="cls-9" d="M160.27,758.81c-4.12,8.56,8.19,32.23,27.55,31,15.68-1,27-17.76,24.11-26.4C207.43,750,165.81,747.3,160.27,758.81Z"/><path class="cls-9" d="M287.69,788.66c-5.35,9.44,9.58,28.1,17.22,26.41,7.2-1.6,13.8-22.54,4.6-29.85C303.32,780.3,291.19,782.51,287.69,788.66Z"/><path class="cls-9" d="M288.84,636c-1.81,13.37,6.35,30,16.07,31,17.81,1.8,44.06-48.55,34.44-58.54C331.57,600.33,292.29,610.45,288.84,636Z"/><path class="cls-9" d="M311.8,693.38c.11,5.14,5.14,10.63,9.19,10.33,4.7-.35,7.41-8.5,10.4-17.51,1.87-5.63,1.3-6.37,1.08-6.6C329.61,676.68,311.6,683.51,311.8,693.38Z"/><path class="cls-9" d="M373.38,680.84c-24.05-43.46-5-108,20.41-113.52,21.88-4.72,51,33.87,61.23,67.6,8.82,29.23,9.9,76.34-12.76,86.73C421.74,731.07,388.11,707.44,373.38,680.84Z"/></g></svg>